<svg xmlns="http://www.w3.org/2000/svg" viewBox="0 0 13.93 8.47"><defs><style>.cls-1{fill:#fff;}</style></defs><title>icon-lang-de</title><g id="Ebene_2" data-name="Ebene 2"><g id="Ebene_2-2" data-name="Ebene 2"><path class="cls-1" d="M6.83,4.24a4.66,4.66,0,0,1-.34,1.87,3.3,3.3,0,0,1-1,1.32,3.87,3.87,0,0,1-1.46.78,6.17,6.17,0,0,1-1.87.26c-.34,0-.71,0-1.11,0A6.75,6.75,0,0,1,0,8.27V.2A6.75,6.75,0,0,1,1.1,0c.4,0,.77,0,1.11,0A6.5,6.5,0,0,1,4.08.26,3.87,3.87,0,0,1,5.54,1a3.45,3.45,0,0,1,1,1.32A4.71,4.71,0,0,1,6.83,4.24ZM2.3,7.45a3.32,3.32,0,0,0,2.48-.84,3.31,3.31,0,0,0,.81-2.37,3.28,3.28,0,0,0-.81-2.37A3.29,3.29,0,0,0,2.3,1H1.54l-.38,0V7.42l.38,0Z"/><path class="cls-1" d="M8.56,8.4V.08h5.07v1H9.72V3.55H13.2v1H9.72V7.4h4.21v1Z"/></g></g></svg>