<svg id="Layer_1" data-name="Layer 1" xmlns="http://www.w3.org/2000/svg" viewBox="0 0 560 101.4"><defs><style>.cls-1{fill:#231f20;}.cls-2{fill:#2868a8;}</style></defs><title>logo-ac-ningbo-eV</title><path class="cls-1" d="M560,21V20c0-.28-.2-.39-.59-.39h-1.58c-1.13,0-1.52-.23-1.52-1.77V8h3a.57.57,0,0,0,.56-.56v-1a.57.57,0,0,0-.56-.56h-3V2.87a.45.45,0,0,0-.42-.48h-.08l-1.46.23a.57.57,0,0,0-.51.56V5.94H551.1a.5.5,0,0,0-.54.51v.76c0,.31.23.48.54.51l2.73.31v9.84c0,3.1,1.24,3.77,3.83,3.77a13.71,13.71,0,0,0,1.83-.14c.37-.06.51-.23.51-.48M549.15,1.55V.62c0-.25-.23-.37-.54-.45A6.46,6.46,0,0,0,547,0c-2.48,0-3.94.9-3.94,3.91v2h-2.73a.51.51,0,0,0-.54.51v.76a.53.53,0,0,0,.54.51L543.1,8V20.87a.58.58,0,0,0,.56.56H545a.58.58,0,0,0,.54-.56V8h3a.49.49,0,0,0,.54-.48V6.45a.51.51,0,0,0-.54-.51h-3v-2c0-1.55.39-1.94,1.72-1.94h1.35c.31,0,.51-.11.51-.42M535.29,18.48a7.73,7.73,0,0,1-3.81,1.13c-1.63,0-2.59-.54-2.59-2.57V16.7c0-2,.9-2.76,4.31-2.76h2.08Zm2.48,2.39V11c0-3.33-1.57-5.3-5.49-5.3a24.26,24.26,0,0,0-4.37.37c-.39.06-.59.23-.59.53v1c0,.37.25.45.5.45H528a41,41,0,0,1,4.31-.23c2.2,0,3,.82,3,3.19v1.13h-2.08c-5,0-6.79,1.52-6.79,4.56v.34c0,3.52,2.19,4.56,4.59,4.56a8.61,8.61,0,0,0,4.34-1.38v.62a.57.57,0,0,0,.56.56h1.29A.57.57,0,0,0,537.77,20.87Zm-14.62,0V11.6c0-4.14-2.08-5.86-5.07-5.86a11.82,11.82,0,0,0-4.31.87V.82a.54.54,0,0,0-.54-.56h-1.41a.54.54,0,0,0-.54.56V20.87a.56.56,0,0,0,.54.56h1.38a.58.58,0,0,0,.56-.56V8.7a11,11,0,0,1,3.89-.79c1.83,0,3,.87,3,3.69v9.27a.57.57,0,0,0,.56.56h1.35a.57.57,0,0,0,.56-.56m-15-.17v-1a.43.43,0,0,0-.48-.42h-.11a27.47,27.47,0,0,1-3.49.2c-2.28,0-3.52-1.52-3.52-4.68v-2.2c0-3.18,1.27-4.68,3.52-4.68a27.47,27.47,0,0,1,3.49.2h.11a.43.43,0,0,0,.48-.42v-1c0-.39-.11-.53-.56-.62A20.7,20.7,0,0,0,504,5.75c-3.86,0-6,2.7-6,6.84v2.2c0,4.14,2.17,6.85,6,6.85a20.43,20.43,0,0,0,3.52-.31c.45-.08.56-.25.56-.62m-12.9-3.15c0-1.66-.76-2.88-3.1-4.26l-2.79-1.66c-1.3-.76-1.95-1.3-1.95-2.14,0-1.44,1-1.63,2.62-1.63s3.38.14,4.37.23h.08a.43.43,0,0,0,.48-.48V6.67c0-.31-.17-.5-.54-.56A26.33,26.33,0,0,0,490,5.75c-2.9,0-5.1.82-5.1,3.74,0,1.77,1.16,3,2.87,4l2.85,1.69c1.61,1,2.11,1.49,2.11,2.34,0,1.52-1,2-2.79,2-1,0-3.07-.14-4.42-.31h-.11a.46.46,0,0,0-.51.42v1c0,.31.23.48.59.56a21.82,21.82,0,0,0,4.45.42c3.16,0,5.27-1.21,5.27-4.08M482.75,7.41V6.25q0-.51-.59-.51a6.75,6.75,0,0,0-4,1.35V6.51a.54.54,0,0,0-.54-.56h-1.32a.54.54,0,0,0-.54.56V20.87a.56.56,0,0,0,.54.56h1.38a.58.58,0,0,0,.56-.56V9.07a7.19,7.19,0,0,1,3.89-1.19c.39,0,.59-.17.59-.48M469.9,12.59h-7.47v-.25c0-3,1.35-4.43,3.78-4.43s3.69,1.24,3.69,4.43Zm2.5,1.26V12.34c0-4-2.08-6.59-6.2-6.59S460,8.31,460,12.34v2.53c0,5.24,3.15,6.76,6.4,6.76a25.55,25.55,0,0,0,5-.48c.45-.08.56-.28.56-.65v-1a.4.4,0,0,0-.45-.39h-.14a38.61,38.61,0,0,1-5,.31c-2.59,0-3.92-1.24-3.92-4.6v-.39h9.44c.34,0,.54-.25.54-.62m-15.78,7V11.6c0-3.75-1.52-5.86-4.9-5.86A8.53,8.53,0,0,0,447.25,7V6.51a.54.54,0,0,0-.53-.56h-1.41a.54.54,0,0,0-.53.56V20.87a.56.56,0,0,0,.53.56h1.38a.58.58,0,0,0,.56-.56V9a8.91,8.91,0,0,1,3.81-1.1c2.14,0,3.1.87,3.1,3.72v9.27a.56.56,0,0,0,.56.56h1.35a.56.56,0,0,0,.56-.56M442.15,21V20c0-.28-.2-.39-.59-.39H440c-1.13,0-1.52-.23-1.52-1.77V8h3a.57.57,0,0,0,.56-.56v-1a.57.57,0,0,0-.56-.56h-3V2.87a.45.45,0,0,0-.42-.48H438l-1.47.23a.57.57,0,0,0-.5.56V5.94h-2.73a.5.5,0,0,0-.54.51v.76c0,.31.23.48.54.51L436,8v9.84c0,3.1,1.24,3.77,3.83,3.77a13.71,13.71,0,0,0,1.83-.14c.37-.06.51-.23.51-.48M431.25,7.41V6.25q0-.51-.59-.51a6.75,6.75,0,0,0-4,1.35V6.51a.54.54,0,0,0-.53-.56h-1.32a.54.54,0,0,0-.53.56V20.87a.56.56,0,0,0,.53.56h1.38a.58.58,0,0,0,.56-.56V9.07a7.19,7.19,0,0,1,3.89-1.19c.39,0,.59-.17.59-.48M418,18.48a7.75,7.75,0,0,1-3.81,1.13c-1.63,0-2.59-.54-2.59-2.57V16.7c0-2,.9-2.76,4.31-2.76H418Zm2.47,2.39V11c0-3.33-1.57-5.3-5.49-5.3a24.24,24.24,0,0,0-4.37.37c-.39.06-.59.23-.59.53v1c0,.37.25.45.51.45h.14A41,41,0,0,1,415,7.86c2.2,0,3,.82,3,3.19v1.13h-2.09c-5,0-6.79,1.52-6.79,4.56v.34c0,3.52,2.19,4.56,4.59,4.56A8.62,8.62,0,0,0,418,20.26v.62a.56.56,0,0,0,.56.56h1.3A.56.56,0,0,0,420.46,20.87Zm-16.59-6.14c0,3-.9,4.82-3.67,4.82a22,22,0,0,1-3.3-.28V8.11a20.85,20.85,0,0,1,3.3-.28c2.79,0,3.67,1.92,3.67,4.87Zm2.48,0v-2c0-4.23-1.94-7-6.14-7A23.26,23.26,0,0,0,395,6.4c-.51.11-.59.28-.59.65V26.42a.51.51,0,0,0,.51.54h1.43a.53.53,0,0,0,.54-.54v-5.1a20.82,20.82,0,0,0,3.3.31c4.12,0,6.14-2.48,6.14-6.9m-17.8-2.14h-7.47v-.25c0-3,1.35-4.43,3.78-4.43s3.69,1.24,3.69,4.43Zm2.5,1.26V12.34c0-4-2.08-6.59-6.2-6.59s-6.25,2.56-6.25,6.59v2.53c0,5.24,3.15,6.76,6.39,6.76a25.51,25.51,0,0,0,5-.48c.45-.08.56-.28.56-.65v-1a.4.4,0,0,0-.45-.39H390a38.54,38.54,0,0,1-5,.31c-2.59,0-3.92-1.24-3.92-4.6v-.39h9.44c.34,0,.54-.25.54-.62M376.48,21V20c0-.28-.2-.39-.59-.39h-1.58c-1.13,0-1.52-.23-1.52-1.77V8h3a.57.57,0,0,0,.56-.56v-1a.57.57,0,0,0-.56-.56h-3V2.87a.45.45,0,0,0-.42-.48h-.08l-1.46.23a.57.57,0,0,0-.51.56V5.94h-2.73a.5.5,0,0,0-.54.51v.76c0,.31.23.48.54.51l2.73.31v9.84c0,3.1,1.24,3.77,3.83,3.77a13.71,13.71,0,0,0,1.83-.14c.37-.06.51-.23.51-.48M361.94,19.3c-1,.08-2.34.17-3.3.17-2.79,0-3.67-1.72-3.67-4.79v-2c0-3,.9-4.73,3.67-4.73a21.79,21.79,0,0,1,3.3.2Zm2.48,1.21V.79a.51.51,0,0,0-.51-.54h-1.43a.53.53,0,0,0-.54.54V6a20.55,20.55,0,0,0-3.3-.28c-4.12,0-6.14,2.48-6.14,6.9v2c0,4.23,1.94,7,6.14,7a27.06,27.06,0,0,0,5.18-.48c.51-.08.59-.28.59-.65M342.47,2.84V.56a.61.61,0,0,0-.56-.56h-1.1a.61.61,0,0,0-.56.56V2.84a.56.56,0,0,0,.56.54h1.1a.56.56,0,0,0,.56-.54m4.93,0V.56a.61.61,0,0,0-.56-.56h-1.1a.61.61,0,0,0-.56.56V2.84a.56.56,0,0,0,.56.54h1.1a.56.56,0,0,0,.56-.54m-.7,15.64a7.73,7.73,0,0,1-3.81,1.13c-1.63,0-2.59-.54-2.59-2.57V16.7c0-2,.9-2.76,4.31-2.76h2.08Zm2.48,2.39V11c0-3.33-1.57-5.3-5.49-5.3a24.27,24.27,0,0,0-4.37.37c-.39.06-.59.23-.59.53v1c0,.37.25.45.5.45h.14a41,41,0,0,1,4.31-.23c2.2,0,3,.82,3,3.19v1.13h-2.08c-5,0-6.79,1.52-6.79,4.56v.34c0,3.52,2.19,4.56,4.59,4.56a8.61,8.61,0,0,0,4.34-1.38v.62a.57.57,0,0,0,.56.56h1.29A.57.57,0,0,0,349.18,20.87ZM335.77,21V20c0-.28-.2-.39-.59-.39H333.6c-1.13,0-1.52-.23-1.52-1.77V8h3a.57.57,0,0,0,.56-.56v-1a.57.57,0,0,0-.56-.56h-3V2.87a.45.45,0,0,0-.42-.48h-.08l-1.46.23a.57.57,0,0,0-.51.56V5.94h-2.73a.5.5,0,0,0-.54.51v.76c0,.31.23.48.54.51L329.6,8v9.84c0,3.1,1.24,3.77,3.83,3.77a13.71,13.71,0,0,0,1.83-.14c.37-.06.51-.23.51-.48m-10.45-5c0-2.25-1.16-3.81-4.42-5.75L318.3,8.7c-2.14-1.3-3.07-2.08-3.07-3.41,0-2.06,1.24-2.68,4.14-2.68,1.63,0,3.61.08,4.84.17h.06a.44.44,0,0,0,.48-.45V1.13c0-.28-.2-.42-.48-.48a38.1,38.1,0,0,0-4.9-.34c-4.29,0-6.73,1.57-6.73,5,0,2.25,1.3,3.69,3.89,5.27l2.74,1.66c2.56,1.58,3.38,2.37,3.38,3.78,0,2-.9,3.32-4.29,3.32-1.3,0-3.35-.06-4.65-.17h-.08a.44.44,0,0,0-.48.45v1.12c0,.31.06.42.54.51a28.07,28.07,0,0,0,4.67.39c5.55,0,7-2.93,7-5.63m-21.81-8.6V6.25q0-.51-.59-.51a6.75,6.75,0,0,0-4,1.35V6.51a.54.54,0,0,0-.54-.56h-1.32a.54.54,0,0,0-.54.56V20.87a.56.56,0,0,0,.54.56h1.38a.58.58,0,0,0,.56-.56V9.07a7.19,7.19,0,0,1,3.89-1.19c.39,0,.59-.17.59-.48m-12.84,5.19H283.2v-.25c0-3,1.35-4.43,3.78-4.43s3.69,1.24,3.69,4.43Zm2.5,1.26V12.34c0-4-2.08-6.59-6.2-6.59s-6.25,2.56-6.25,6.59v2.53c0,5.24,3.15,6.76,6.4,6.76a25.55,25.55,0,0,0,5-.48c.45-.08.56-.28.56-.65v-1a.4.4,0,0,0-.45-.39h-.14a38.61,38.61,0,0,1-5,.31c-2.59,0-3.92-1.24-3.92-4.6v-.39h9.44c.34,0,.54-.25.54-.62M274.92,19.3c-1,.08-2.34.17-3.3.17-2.79,0-3.67-1.72-3.67-4.79v-2c0-3,.9-4.73,3.67-4.73a21.85,21.85,0,0,1,3.3.2Zm2.47,1.21V.79a.51.51,0,0,0-.5-.54h-1.44a.53.53,0,0,0-.53.54V6a20.61,20.61,0,0,0-3.3-.28c-4.11,0-6.14,2.48-6.14,6.9v2c0,4.23,1.94,7,6.14,7a27.11,27.11,0,0,0,5.18-.48c.5-.08.59-.28.59-.65m-24.08,2.2c0,1.55-.73,2.45-3.95,2.45s-4.06-1-4.06-2.56v-.25a3.36,3.36,0,0,1,1.38-2.88l3.18.82c2.54.65,3.44,1.1,3.44,2.2Zm-.23-11.55c0,1.69-.76,2.88-3.81,2.88-3.24,0-3.81-1.63-3.81-2.88v-.23c0-1.58.65-3,3.81-3s3.81,1.32,3.81,3Zm3-3.86V6.56a.65.65,0,0,0-.65-.62h-6.17c-4.85,0-6.25,2.48-6.25,5v.23a4.15,4.15,0,0,0,1.29,3.27,2.31,2.31,0,0,0-1.15,2v0a2.32,2.32,0,0,0,1.29,2.2l.2.08a4.56,4.56,0,0,0-1.77,3.58v.25c0,2.76,2,4.48,6.48,4.48,4.62,0,6.42-1.66,6.42-4.36v-.23c0-2.65-2.64-3.44-5.41-4.14l-4.2-1.07c-.65-.17-.88-.42-.88-.9a1,1,0,0,1,.71-1,8.11,8.11,0,0,0,3.27.56c4.34,0,6.25-1.72,6.25-4.82v-.23a4,4,0,0,0-1-2.9l1-.2c.31-.06.51-.17.51-.54M239.45,20.87V11.6c0-3.75-1.52-5.86-4.9-5.86A8.51,8.51,0,0,0,230.06,7V6.51a.54.54,0,0,0-.54-.56h-1.41a.54.54,0,0,0-.53.56V20.87a.56.56,0,0,0,.53.56h1.38a.58.58,0,0,0,.56-.56V9a8.89,8.89,0,0,1,3.8-1.1c2.14,0,3.1.87,3.1,3.72v9.27a.56.56,0,0,0,.56.56h1.35a.57.57,0,0,0,.56-.56m-15.69,0V6.51a.56.56,0,0,0-.54-.56h-1.38a.58.58,0,0,0-.56.56V18.4a8.93,8.93,0,0,1-3.81,1.1c-2.14,0-3.1-.87-3.1-3.72V6.51a.57.57,0,0,0-.56-.56h-1.35a.57.57,0,0,0-.56.56v9.27c0,3.75,1.52,5.86,4.9,5.86a8.52,8.52,0,0,0,4.48-1.29v.53a.54.54,0,0,0,.54.56h1.41A.54.54,0,0,0,223.75,20.87ZM209.22,7.41V6.25q0-.51-.59-.51a6.75,6.75,0,0,0-4,1.35V6.51a.54.54,0,0,0-.54-.56h-1.32a.54.54,0,0,0-.54.56V20.87a.56.56,0,0,0,.54.56h1.38a.58.58,0,0,0,.56-.56V9.07a7.19,7.19,0,0,1,3.89-1.19c.39,0,.59-.17.59-.48m-12.84,5.19H188.9v-.25c0-3,1.35-4.43,3.78-4.43s3.69,1.24,3.69,4.43Zm2.5,1.26V12.34c0-4-2.08-6.59-6.2-6.59s-6.25,2.56-6.25,6.59v2.53c0,5.24,3.15,6.76,6.39,6.76a25.51,25.51,0,0,0,5-.48c.45-.08.56-.28.56-.65v-1a.4.4,0,0,0-.45-.39h-.14a38.55,38.55,0,0,1-5,.31c-2.59,0-3.92-1.24-3.92-4.6v-.39h9.44c.34,0,.54-.25.54-.62M180.62,19.3c-1,.08-2.34.17-3.3.17-2.79,0-3.67-1.72-3.67-4.79v-2c0-3,.9-4.73,3.67-4.73a21.79,21.79,0,0,1,3.3.2Zm2.48,1.21V.79a.51.51,0,0,0-.51-.54h-1.43a.53.53,0,0,0-.54.54V6a20.55,20.55,0,0,0-3.3-.28c-4.12,0-6.14,2.48-6.14,6.9v2c0,4.23,1.94,7,6.14,7a27.06,27.06,0,0,0,5.18-.48c.51-.08.59-.28.59-.65M169.83,7.41V6.25q0-.51-.59-.51a6.75,6.75,0,0,0-4,1.35V6.51a.54.54,0,0,0-.54-.56h-1.32a.54.54,0,0,0-.54.56V20.87a.56.56,0,0,0,.54.56h1.38a.58.58,0,0,0,.56-.56V9.07a7.19,7.19,0,0,1,3.89-1.19c.39,0,.59-.17.59-.48M151.88,2.84V.56a.61.61,0,0,0-.56-.56h-1.1a.61.61,0,0,0-.56.56V2.84a.56.56,0,0,0,.56.54h1.1a.56.56,0,0,0,.56-.54m4.93,0V.56a.61.61,0,0,0-.56-.56h-1.1a.61.61,0,0,0-.56.56V2.84a.56.56,0,0,0,.56.54h1.1a.56.56,0,0,0,.56-.54m.26,11.92c0,2.9-1.18,4.71-3.81,4.71s-3.78-1.83-3.78-4.71V12.62c0-2.9,1.16-4.71,3.78-4.71s3.81,1.83,3.81,4.71Zm2.48,0V12.62c0-4.14-2.14-6.87-6.28-6.87S147,8.48,147,12.62v2.14c0,4.14,2.11,6.87,6.25,6.87s6.28-2.73,6.28-6.87M144.81,11.1V10a.57.57,0,0,0-.56-.56H135.6V5.55c0-2.14.48-2.93,3.47-2.93h5.44a.3.3,0,0,0,.31-.34V.87a.4.4,0,0,0-.28-.39C143.34.37,140.7.31,139,.31c-3.94,0-6,1.49-6,5.24V20.87a.57.57,0,0,0,.56.56H135a.57.57,0,0,0,.56-.56V11.66h8.65a.57.57,0,0,0,.56-.56M123.12,7.41V6.25q0-.51-.59-.51a6.75,6.75,0,0,0-4,1.35V6.51a.54.54,0,0,0-.54-.56H116.7a.54.54,0,0,0-.54.56V20.87a.56.56,0,0,0,.54.56h1.38a.58.58,0,0,0,.56-.56V9.07a7.19,7.19,0,0,1,3.89-1.19c.39,0,.59-.17.59-.48M112.33,20.87V6.51a.56.56,0,0,0-.54-.56h-1.38a.58.58,0,0,0-.56.56V18.4a8.92,8.92,0,0,1-3.8,1.1c-2.14,0-3.1-.87-3.1-3.72V6.51a.57.57,0,0,0-.56-.56H101a.57.57,0,0,0-.56.56v9.27c0,3.75,1.52,5.86,4.9,5.86a8.51,8.51,0,0,0,4.48-1.29v.53a.54.54,0,0,0,.54.56h1.41A.54.54,0,0,0,112.33,20.87Zm-15.19,0v-1a.57.57,0,0,0-.56-.56H89.14c-.2,0-.23-.08-.23-.23a.43.43,0,0,1,.14-.31l7.41-9.27A2.22,2.22,0,0,0,97.11,8V7.32c0-.84-.42-1.38-1.57-1.38H87.25a.57.57,0,0,0-.56.56v1a.57.57,0,0,0,.56.56H94.1c.23,0,.28.08.28.2a.51.51,0,0,1-.11.25l-7.27,9a2.57,2.57,0,0,0-.65,1.83v.54a1.53,1.53,0,0,0,1.72,1.55h8.51a.57.57,0,0,0,.56-.56m-21,0V11.6c0-3.75-1.52-5.86-4.9-5.86A8.53,8.53,0,0,0,66.71,7V6.51a.54.54,0,0,0-.53-.56H64.77a.54.54,0,0,0-.54.56V20.87a.56.56,0,0,0,.54.56h1.38a.58.58,0,0,0,.56-.56V9a8.9,8.9,0,0,1,3.81-1.1c2.14,0,3.1.87,3.1,3.72v9.27a.57.57,0,0,0,.56.56h1.35a.56.56,0,0,0,.56-.56m-16,0V6.51a.56.56,0,0,0-.56-.56H58.15a.56.56,0,0,0-.56.56V20.87a.56.56,0,0,0,.56.56H59.5a.56.56,0,0,0,.56-.56m.06-18V.65a.56.56,0,0,0-.56-.56H58.12a.56.56,0,0,0-.56.56V2.9a.56.56,0,0,0,.56.56h1.44a.56.56,0,0,0,.56-.56m-8.73,9.69H43.92v-.25c0-3,1.36-4.43,3.78-4.43s3.69,1.24,3.69,4.43Zm2.5,1.26V12.34c0-4-2.08-6.59-6.2-6.59s-6.25,2.56-6.25,6.59v2.53c0,5.24,3.15,6.76,6.39,6.76a25.53,25.53,0,0,0,5-.48c.45-.08.56-.28.56-.65v-1a.4.4,0,0,0-.45-.39h-.14a38.58,38.58,0,0,1-5,.31c-2.59,0-3.92-1.24-3.92-4.6v-.39h9.44c.34,0,.53-.25.53-.62M39.95,7.41V6.25q0-.51-.59-.51a6.75,6.75,0,0,0-4,1.35V6.51a.54.54,0,0,0-.53-.56H33.53a.54.54,0,0,0-.53.56V20.87a.56.56,0,0,0,.53.56h1.38a.58.58,0,0,0,.56-.56V9.07a7.19,7.19,0,0,1,3.89-1.19c.39,0,.59-.17.59-.48M27.11,12.59H19.63v-.25c0-3,1.36-4.43,3.78-4.43s3.69,1.24,3.69,4.43Zm2.5,1.26V12.34c0-4-2.08-6.59-6.2-6.59s-6.25,2.56-6.25,6.59v2.53c0,5.24,3.15,6.76,6.39,6.76a25.53,25.53,0,0,0,5-.48c.45-.08.56-.28.56-.65v-1a.4.4,0,0,0-.45-.39h-.14a38.58,38.58,0,0,1-5,.31c-2.59,0-3.92-1.24-3.92-4.6v-.39h9.44c.34,0,.53-.25.53-.62M16.2,1a.46.46,0,0,0-.48-.48H14.06a.54.54,0,0,0-.48.42L8.65,18.88c-.11.39-.25.59-.54.59s-.45-.2-.56-.59L2.65.93A.57.57,0,0,0,2.14.51H.51A.48.48,0,0,0,0,1a.36.36,0,0,0,0,.17L5.24,19.5a2.75,2.75,0,0,0,2.87,2.14A2.73,2.73,0,0,0,11,19.5L16.17,1.16a.36.36,0,0,0,0-.17"/><path class="cls-1" d="M483.69,54.68V52.06a.53.53,0,0,0-.54-.54h-1.35a.53.53,0,0,0-.53.54v2.62a.56.56,0,0,0,.53.56h1.35a.54.54,0,0,0,.54-.56m-9.38-19.89a.46.46,0,0,0-.48-.48h-1.66a.54.54,0,0,0-.48.42l-4.93,17.95c-.11.39-.25.59-.54.59s-.45-.2-.56-.59l-4.9-17.95a.57.57,0,0,0-.51-.42h-1.63a.48.48,0,0,0-.51.48.36.36,0,0,0,0,.17l5.21,18.34a3,3,0,0,0,5.75,0L474.28,35a.36.36,0,0,0,0-.17m-38.6,19.89V52.06a.53.53,0,0,0-.54-.54h-1.35a.53.53,0,0,0-.54.54v2.62a.56.56,0,0,0,.54.56h1.35a.54.54,0,0,0,.54-.56M421.18,46.4h-7.47v-.25c0-3,1.35-4.43,3.78-4.43s3.69,1.24,3.69,4.43Zm2.5,1.26V46.15c0-4-2.08-6.59-6.2-6.59s-6.25,2.56-6.25,6.59v2.53c0,5.24,3.15,6.76,6.39,6.76a25.51,25.51,0,0,0,5-.48c.45-.08.56-.28.56-.65v-1a.4.4,0,0,0-.45-.39h-.14a38.54,38.54,0,0,1-5,.31c-2.59,0-3.92-1.24-3.92-4.6v-.39h9.44c.34,0,.54-.25.54-.62M385.91,46.6c0,4.73-1.94,6.54-5,6.54s-5-1.8-5-6.54V43c0-4.73,2-6.54,5-6.54s5,1.8,5,6.54Zm2.59,0V43c0-6.25-3.18-8.84-7.61-8.84s-7.63,2.59-7.63,8.84V46.6c0,6.25,3.21,8.84,7.63,8.84s7.61-2.59,7.61-8.84m-27.24,2.88c0,3-2.17,3.79-5.67,3.79-1,0-2-.08-2.93-.11V45.44H357c3.32,0,4.25,1.71,4.25,3.57ZM361.14,40c0,1.78-.87,3.37-4.14,3.37h-4.34v-7c.79,0,1.83-.08,2.79-.08,3.44,0,5.69.57,5.69,3.28Zm2.67,9.46V49a4.61,4.61,0,0,0-3.12-4.55,4.52,4.52,0,0,0,3-4.44v-.45c0-4.27-3.77-5.45-8.25-5.45a41.45,41.45,0,0,0-4.48.23.91.91,0,0,0-.9,1V54.15c0,.7.28,1,.93,1a32.65,32.65,0,0,0,4.59.25c4.4,0,8.23-1.24,8.23-6M339.33,54.4V44.94a.56.56,0,0,0-.54-.56h-1.52a.52.52,0,0,0-.51.56V53c-.68.06-1.83.17-3.55.17-2.62,0-4.74-1.83-4.74-6.48V42.91c0-5.07,2.37-6.48,5-6.48,2.39,0,3.69.06,5.35.2h.11c.25,0,.37-.08.37-.28V34.93c0-.28-.23-.39-.48-.42a32.43,32.43,0,0,0-5.35-.39c-3.61,0-7.55,1.94-7.55,8.79v3.78c0,6.45,3.77,8.76,7.3,8.76a32,32,0,0,0,5.6-.42.61.61,0,0,0,.51-.62m-23.58,0V34.85a.51.51,0,0,0-.51-.54h-1.49a.53.53,0,0,0-.51.54V51.33s0,.08,0,.08l-.06-.08-8.65-16.45c-.23-.42-.37-.56-1.16-.56h-1.55a.79.79,0,0,0-.82.79v19.8c0,.28.23.34.51.34H303a.53.53,0,0,0,.51-.54V38.26c0-.06,0-.08,0-.08s.06,0,.08.08l8.71,16.54a.93.93,0,0,0,.9.45h1.74a.82.82,0,0,0,.82-.82M290,54.68V34.85a.51.51,0,0,0-.51-.54h-1.55a.51.51,0,0,0-.51.54V54.68a.54.54,0,0,0,.51.56h1.55a.54.54,0,0,0,.51-.56m-13.58-.25V34.85a.51.51,0,0,0-.51-.54H274.4a.53.53,0,0,0-.51.54V51.33s0,.08,0,.08l-.06-.08-8.65-16.45c-.23-.42-.37-.56-1.16-.56h-1.55a.79.79,0,0,0-.82.79v19.8c0,.28.23.34.51.34h1.46a.53.53,0,0,0,.51-.54V38.26c0-.06,0-.08,0-.08s.06,0,.08.08l8.71,16.54a.93.93,0,0,0,.9.45h1.74a.82.82,0,0,0,.82-.82m-36.17-6.59v-1.1a.51.51,0,0,0-.54-.51h-8.51a.51.51,0,0,0-.54.51v1.1a.49.49,0,0,0,.54.48h8.51a.49.49,0,0,0,.54-.48m-31,6.59V34.85a.51.51,0,0,0-.5-.54h-1.49a.53.53,0,0,0-.5.54V51.33s0,.08,0,.08l-.06-.08L198,34.88c-.23-.42-.37-.56-1.16-.56h-1.55a.79.79,0,0,0-.81.79v19.8c0,.28.22.34.5.34h1.47a.53.53,0,0,0,.5-.54V38.26c0-.06,0-.08,0-.08s.06,0,.08.08l8.71,16.54a.93.93,0,0,0,.9.45h1.74a.82.82,0,0,0,.81-.82m-24.85.48V53.47a.3.3,0,0,0-.31-.34h-5.44c-3,0-3.47-.79-3.47-2.93V45.47h8.65a.57.57,0,0,0,.56-.56V43.84a.57.57,0,0,0-.56-.56h-8.65V39.36c0-2.14.48-2.93,3.47-2.93h5.44a.3.3,0,0,0,.31-.34V34.68a.4.4,0,0,0-.28-.39c-1.18-.11-3.83-.17-5.49-.17-3.94,0-6,1.49-6,5.24V50.2c0,3.75,2.05,5.24,6,5.24,1.66,0,4.42,0,5.49-.14a.4.4,0,0,0,.28-.39m-22.51-.23V34.88a.56.56,0,0,0-.56-.56h-1.44a.56.56,0,0,0-.56.56V43h-9.64V34.88a.56.56,0,0,0-.56-.56h-1.44a.56.56,0,0,0-.56.56v19.8a.56.56,0,0,0,.56.56h1.44a.56.56,0,0,0,.56-.56V45.33h9.64v9.35a.56.56,0,0,0,.56.56h1.44a.56.56,0,0,0,.56-.56m-24.29-.17V53.36a.39.39,0,0,0-.45-.45H137c-1,.08-3,.23-4.65.23-2.76,0-4.9-1.66-4.9-6.4V42.82c0-4.79,2.14-6.4,4.9-6.4,1.63,0,3.72.17,4.73.25h.08c.28,0,.34-.14.34-.31V34.93c0-.25-.2-.34-.45-.37a30.34,30.34,0,0,0-4.73-.45c-3.47,0-7.43,1.8-7.43,8.7v3.92c0,6.85,4,8.7,7.43,8.7a22.21,22.21,0,0,0,4.68-.37c.31-.06.56-.23.56-.56m-25.89-8.39h-6.23L108,36.85c.08-.31.25-.51.56-.51s.45.2.54.51Zm5,8.67a.48.48,0,0,0,0-.2l-5.21-18.37a2.74,2.74,0,0,0-2.85-2.11,2.77,2.77,0,0,0-2.87,2.14L100.51,54.6a.48.48,0,0,0,0,.2.45.45,0,0,0,.48.45h1.66a.57.57,0,0,0,.51-.42l1.8-6.48h7.3l1.83,6.48a.51.51,0,0,0,.48.42h1.66a.44.44,0,0,0,.48-.45M87.52,46.12H81.29l2.56-9.27c.08-.31.25-.51.56-.51s.45.2.54.51Zm5,8.67a.48.48,0,0,0,0-.2L87.27,36.23a2.74,2.74,0,0,0-2.85-2.11,2.77,2.77,0,0,0-2.87,2.14L76.33,54.6a.48.48,0,0,0,0,.2.45.45,0,0,0,.48.45h1.66a.57.57,0,0,0,.51-.42l1.8-6.48h7.3l1.83,6.48a.51.51,0,0,0,.48.42H92a.44.44,0,0,0,.48-.45"/><path class="cls-2" d="M471.68,89.9q0,1.12-1.84,3.25a9.45,9.45,0,0,1-2.45,2.33,6.59,6.59,0,0,0-1.56.59.66.66,0,0,0-.3.56,5.65,5.65,0,0,0,.3,1.32q.3,1,.69,1a3.45,3.45,0,0,0,1.4-.64,16,16,0,0,1,3.85-1.42,61.25,61.25,0,0,1,6.83-1.39q2,3,2.37,3.43a1,1,0,0,0,.71.39q.78,0,.78-1.42a4.07,4.07,0,0,0-.83-2.52A11,11,0,0,0,479,93a6.91,6.91,0,0,0-2.32-1.23q-.17,0-.17.19a1.55,1.55,0,0,0,.32.66q.32.47,1.34,2.16-6.29.61-9.57,1.08a46,46,0,0,1,5.09-4.24q.66-.29.66-.63,0-.68-2-1.52,5.88-.78,8.52-.88t2.64-.74q0-.41-1-.79a5.1,5.1,0,0,0-1.79-.39,13.68,13.68,0,0,0-2.76.49q-2,.49-6.74,1.15t-5.76.66q-1,0-1,.25t.9.63a4.25,4.25,0,0,0,1.61.37,8.23,8.23,0,0,0,1.57-.17q.86-.17,3.16-.47a1.26,1.26,0,0,1,0,.3m6.51-7.52a3.45,3.45,0,0,0-1.47-.25,11.26,11.26,0,0,0-3.08.71,21.66,21.66,0,0,1-2.25.59,10.47,10.47,0,0,1-1.94.29q-.61,0-.61.27t.52.46a5.25,5.25,0,0,0,2.16.29,19.19,19.19,0,0,0,4-.51,13.1,13.1,0,0,0,2.77-.78q.44-.27.44-.54t-.52-.52m-2.72-9.48q.68-.27.68-.78T475,71a4,4,0,0,0-1.59-.61q-.49,0-.49.61a2.93,2.93,0,0,0,0,.41q.14.91-1.17,3.57a32.86,32.86,0,0,1-4.63,6.51,30,30,0,0,1-7,6.09q-.44.24-.44.44t.27.2a10.5,10.5,0,0,0,3.21-1.45A25.73,25.73,0,0,0,469,81.94a37.24,37.24,0,0,0,5.46-7.52q1.62,2.16,4.87,6t3.94,4.43a4.06,4.06,0,0,0,1.28.86,4.56,4.56,0,0,0,1.56.22q1,0,2.92-.12a15.74,15.74,0,0,0,2.27-.22q.3-.1.3-.2,0-.27-1.12-.61a34.26,34.26,0,0,1-4.94-1.88A22,22,0,0,1,481.41,80q-2.33-2-6.63-6.29a2.2,2.2,0,0,1,.68-.81M449.94,86.15q0,.3,1,1.45t1.93,2.16a2.5,2.5,0,0,0,1.61,1q.68,0,.68-1a3.26,3.26,0,0,0-.79-2.35,4.45,4.45,0,0,0-2.1-1.18,8.23,8.23,0,0,0-1.84-.35q-.47,0-.47.3m-13.08-.78a6.23,6.23,0,0,1-1.25,2.5,2.33,2.33,0,0,0-.37.86,4.38,4.38,0,0,0-.17,1.13q0,.88.64.88t1.56-1.35a5.21,5.21,0,0,0,.91-3,2.72,2.72,0,0,0-.22-1.15q-.22-.47-.56-.47t-.54.57M433.54,75a1.11,1.11,0,0,0,.17-.51q0-.57-1.2-1.27a4.19,4.19,0,0,0-1.79-.69q-.59,0-.59.41a1.3,1.3,0,0,0,.3.66,3.2,3.2,0,0,1,.47,1.1,17,17,0,0,1,.25,2.77q.08,2.1.08,4a48,48,0,0,1-5.82,1q-.51,0-.51.32t.81.54a6,6,0,0,0,1.79.25,24.44,24.44,0,0,0,3.69-.51,53.72,53.72,0,0,1-1,10.78,11,11,0,0,0-.3,2.27,5.25,5.25,0,0,0,.37,1.86q.37,1,.85,1a.6.6,0,0,0,.46-.29,2.34,2.34,0,0,0,.36-.9q.14-.61.41-3.69t.3-6.32l.1-5q2.16-.41,3.35-.76t1.18-.64q0-.29-.54-.57a2.94,2.94,0,0,0-1.39-.29,4.26,4.26,0,0,0-1.25.14l-1.25.37q.24-5.14.74-6.05m12-.41a1,1,0,0,0,.17-.51q0-.64-1.28-1.35a4.61,4.61,0,0,0-1.91-.71q-.63,0-.63.37a1.18,1.18,0,0,0,.3.74,4.57,4.57,0,0,1,.61,2.69,26.58,26.58,0,0,1-.41,4.31q-3.08.41-4,.47t-.88.32q0,.25.66.63a2.51,2.51,0,0,0,1.22.37,14.53,14.53,0,0,0,2.72-.61,29.85,29.85,0,0,1-2.89,8.59A21.05,21.05,0,0,1,434,96.19q-.57.47-.57.68a.18.18,0,0,0,.2.2q.68,0,3-1.74a16.68,16.68,0,0,0,4.36-5.19,28.84,28.84,0,0,0,3-9.16,14.25,14.25,0,0,1,2.77-.37q.51,0,.64.29a3,3,0,0,1,.14,1.1,31.87,31.87,0,0,1-.46,5.31,30.7,30.7,0,0,1-1.1,4.61,11.35,11.35,0,0,1-1,2.35,1.06,1.06,0,0,1-.91.44,8.87,8.87,0,0,1-2.48-.78,1.28,1.28,0,0,0-.41-.07q-.2,0-.2.22a.75.75,0,0,0,.27.49,8,8,0,0,1,1.2,1.52,11.85,11.85,0,0,1,.91,1.66q.29.68.73.68T446,97.2a8.77,8.77,0,0,0,1.81-3.67,73.27,73.27,0,0,0,1.49-8.3q.47-3.21,1-3.77t.56-.83q0-.37-1.1-1a3.75,3.75,0,0,0-1.74-.66,2.12,2.12,0,0,0-1.1.27,10.71,10.71,0,0,1-2.62.64,26.15,26.15,0,0,1,1.28-5.24M398.45,91.91a10.09,10.09,0,0,0-.81-3.06,2.06,2.06,0,0,1-.1-.71,5.17,5.17,0,0,1,.57-2.21A5.37,5.37,0,0,1,399.63,84a.85.85,0,0,0,.34-.61q0-.3-1.08-.81a4.38,4.38,0,0,0-1.54-.51,1.11,1.11,0,0,0-.83.41,6.6,6.6,0,0,1-4,1.93q-.41,0-.41.32t.64.44a4.84,4.84,0,0,0,1.08.15,5,5,0,0,0,1.42-.34,5.67,5.67,0,0,1,1.22-.34q.24,0,.24.12a1.09,1.09,0,0,1-.07.32,9.68,9.68,0,0,0-.71,3,3.43,3.43,0,0,0,.3,1.59,9.31,9.31,0,0,1,1.12,3.72,19.18,19.18,0,0,0-2.65.17,25.59,25.59,0,0,1-2.57.2,5,5,0,0,0-1,.05q-.17.05-.17.3t.76.88a2.35,2.35,0,0,0,1,.63,1.09,1.09,0,0,0,.49-.1,8.69,8.69,0,0,1,3.58-.88,11.35,11.35,0,0,1,3.55.63q1.89.63,9,3.67a9.84,9.84,0,0,0,3.6.95,9.63,9.63,0,0,0,2.5-.3q1.13-.3,3.5-1.08a18.91,18.91,0,0,0,2.65-1q.29-.2.29-.41t-.85-.34l-2.77.1q-1.59.07-4,.07a29.33,29.33,0,0,1-5.16-.49,70.22,70.22,0,0,1-8.28-2.28,14.26,14.26,0,0,0-2.57-.68,7.27,7.27,0,0,0,.14-1.54m.81-16a4.15,4.15,0,0,0-1.79-.83,8.87,8.87,0,0,0-1.56-.3.3.3,0,0,0-.34.34,7,7,0,0,0,1.35,2.06q1.35,1.72,2.06,1.72t.85-1.32a2.16,2.16,0,0,0-.57-1.67m12.07,8.3-4,.64q.17-2.27.17-4,3.18-.57,3.85-.64,0,1.42,0,4M412.65,80a20.58,20.58,0,0,0,3.47-.54q.46-.2.46-.52t-.47-.64a2.12,2.12,0,0,0-1.22-.32,8,8,0,0,0-2.16.44,14.63,14.63,0,0,1,.81-4.36,1.2,1.2,0,0,0,.14-.54A1.87,1.87,0,0,0,412.58,72a3.59,3.59,0,0,0-1.67-.68q-.59,0-.59.37a1.7,1.7,0,0,0,.46.95q.46.57.59,6.22-1.62.37-3.89.74,0-1.56,0-2.43a4.89,4.89,0,0,1,.1-1.22,2.06,2.06,0,0,0,.1-.57q0-.57-1.1-.91a6.28,6.28,0,0,0-1.52-.34q-.42,0-.42.27a1,1,0,0,0,.27.61q.88,1.15,1.08,4.83-1.59.24-2.5.3t-.91.35q0,.29.49.47a4.06,4.06,0,0,0,1.39.19,10.72,10.72,0,0,0,1.57-.1q0,1.49-.14,4-3.25.44-4.33.51t-1.08.27q0,.2.56.61a2.18,2.18,0,0,0,1.32.41,21,21,0,0,0,3.43-.61,10.12,10.12,0,0,1-.93,3.55,14.6,14.6,0,0,1-2.48,3q-.54.54-.54.74s0,.07.1.07a6,6,0,0,0,1.86-.88,6.43,6.43,0,0,0,2.37-2.45,11.06,11.06,0,0,0,1.12-4.41q1.79-.27,4.06-.47a32.58,32.58,0,0,1-.41,5.34,10.15,10.15,0,0,0-.3,2.32A4.46,4.46,0,0,0,411,95q.42.9.73.9t.63-1.08a10.18,10.18,0,0,0,.32-2.82q0-1.74-.07-2.48t-.07-4.19q2.23-.14,3.41-.14t1.83.07a2.33,2.33,0,0,0,1-.08.55.55,0,0,0,.41-.54q0-.39-.86-.88a3.41,3.41,0,0,0-1.69-.49,4.94,4.94,0,0,0-1.44.19q-.61.19-2.67.56,0-1.69.07-4m-42.06-3.65q5.85-.95,6.05-.95.78,0,.78.81A9.71,9.71,0,0,1,377.1,78a5.49,5.49,0,0,1-.56,1.64,2.85,2.85,0,0,1-1.28.63,27.6,27.6,0,0,1-3.69.69,33.3,33.3,0,0,0-1-4.6m4.53,11.22a6.34,6.34,0,0,0,1.61.2,13,13,0,0,0,2.21-.25,7.2,7.2,0,0,0,1.67-.42.51.51,0,0,0,.29-.46q0-.29-.54-.59a2.89,2.89,0,0,0-1.42-.3,16.91,16.91,0,0,0-3.82.95q0-1,.34-3.58a1,1,0,0,0-.15-.74,5.48,5.48,0,0,0-1-.91q2.81-.37,3.6-.42t.79-.49a.5.5,0,0,0-.19-.37.86.86,0,0,1-.19-.64,4.17,4.17,0,0,1,1-1.79,8.08,8.08,0,0,1,1.35-1.49q.74-.37.74-.64,0-.47-1.42-1.28a5,5,0,0,0-2.13-.81,2.52,2.52,0,0,0-1.17.39,13.76,13.76,0,0,1-2.87.93,27.46,27.46,0,0,1-3.94.71,5.25,5.25,0,0,0-1.56-.37q-.51,0-.51.27a1.4,1.4,0,0,0,.37.74,10.76,10.76,0,0,1,1,1.94,13,13,0,0,1,.79,2.08q.57,2.47,1,2.47t.57-.85q.57-.1,1.59-.24a12.1,12.1,0,0,1,.37,3.74q0,2.79-.1,6.71-3.79-2.27-4.56-2.64a25.52,25.52,0,0,1,1.28-2.89.92.92,0,0,0,.2-.59q0-.34-.83-.88a2.68,2.68,0,0,0-1.27-.54.39.39,0,0,0-.44.44,1.39,1.39,0,0,0,.08.42,3.87,3.87,0,0,1,.08,1,11.43,11.43,0,0,1-.85,3,13.29,13.29,0,0,1-3.35,4.72q-.54.54-.54.71t.14.17a6,6,0,0,0,2.3-1.3,9.62,9.62,0,0,0,2.87-3.57q7.4,5.27,8.45,6.24a9.88,9.88,0,0,0,1.62,1.28,3.07,3.07,0,0,0,1.5.32,16.28,16.28,0,0,0,3.33-.61,25.46,25.46,0,0,0,2.79-.79q.39-.19.39-.39t-.95-.34a59.68,59.68,0,0,1-6.54-1.15A18.31,18.31,0,0,1,375,92.91Zm-13.39-4.23q0,1.56-.17,5.27a21.86,21.86,0,0,1-.54,4.8,5.73,5.73,0,0,0-.37,1.77,6.28,6.28,0,0,0,.42,1.91q.42,1.22.73,1.22t.49-.41a9.82,9.82,0,0,0,.46-1.72,11,11,0,0,0,.27-2.06q.07-9.13.22-10.31a15.25,15.25,0,0,0,.15-1.66,2.66,2.66,0,0,0-1-2q1-1.42,2-3a9.69,9.69,0,0,1,1.5-2.1.61.61,0,0,0,.24-.47q0-.57-.93-1.37a2.69,2.69,0,0,0-1.4-.79q-.47,0-.47.44t0,1.1a6.55,6.55,0,0,1-.51,1.94,23.61,23.61,0,0,1-1.59,3.19,35.72,35.72,0,0,1-2.7,4,36.69,36.69,0,0,1-3,3.5q-.54.57-.54.74t.14.17a6,6,0,0,0,2.33-1.39,24.43,24.43,0,0,0,4.29-4.83,14.58,14.58,0,0,1,.1,2.13m-26.44-.51a38,38,0,0,1-5.17.61,4.36,4.36,0,0,0-1.4-.37q-.46,0-.46.25a1.19,1.19,0,0,0,.25.63,3.06,3.06,0,0,1,.41,1,4.63,4.63,0,0,1,.15,1.12,15.29,15.29,0,0,1-.25,3.63,4.12,4.12,0,0,0-.25,1.23,2.8,2.8,0,0,0,.3,1.13q.3.66.64.66.54,0,1-1.52a16.18,16.18,0,0,0,.42-4.16,18.75,18.75,0,0,0-.17-2.64,39.7,39.7,0,0,0,4.56-.71q0,2.2,0,5.54l0,5.41a38.05,38.05,0,0,0,.24,5.56q.24,1.17.54,1.17t.79-2.47a49.41,49.41,0,0,0,.36-6.69q0-4.23.07-8.86a22.5,22.5,0,0,1,3.26-.34q1.13,0,1.44.35a3.53,3.53,0,0,1,.46,1.66,27.11,27.11,0,0,1,.15,3.09.92.92,0,0,1-1.08,1.12,6,6,0,0,1-1.12-.1,4.92,4.92,0,0,0-.73-.1q-.19,0-.19.15t.41.44A6.84,6.84,0,0,1,341,90.83a13.06,13.06,0,0,1,1,1.44q.32.54.59.54.51,0,1.3-1.32a5.47,5.47,0,0,0,.79-2.87l-.1-2.4q0-1.93.61-2.4a.69.69,0,0,0,.34-.57q0-.34-1.2-1.12a3.91,3.91,0,0,0-1.83-.78,2.22,2.22,0,0,0-1.06.24,29.55,29.55,0,0,1-4.23.95q0-3.35,0-4.16,5.11-.47,8.22-.47,1.18,0,1.81.07a10.63,10.63,0,0,0,1.13.07q1.72,0,1.72-.71,0-.54-1.18-1.17a4.91,4.91,0,0,0-2.3-.63,12.35,12.35,0,0,0-2.94.47q-1.83.47-9.31,1.49a92.66,92.66,0,0,1-10.16,1q-.78,0-1.1,0t-.32.22q0,.19.73.81a2.43,2.43,0,0,0,1.62.63,11.45,11.45,0,0,0,2.67-.47,60,60,0,0,1,7-1.08q.44.54.47,4.23m2.33-10.46a4.93,4.93,0,0,0-2.84-.76q-1.15,0-1.15.25t1,1.25q1,1,1.81,1.69a2.32,2.32,0,0,0,1.34.69.77.77,0,0,0,.74-.42,2.06,2.06,0,0,0,.22-1,2.14,2.14,0,0,0-1.12-1.74M294,84.86q2.91-.68,2.91-1.59a.55.55,0,0,0-.34-.49,1.86,1.86,0,0,0-.9-.19,5.58,5.58,0,0,0-1.54.3,39.05,39.05,0,0,1,.51-5.46,2,2,0,0,0,.2-.76q0-.74-1.42-1.39a6.12,6.12,0,0,0-1.89-.64q-.47,0-.47.32a1.72,1.72,0,0,0,.44.9q1.18,1.69,1,7.57a20.6,20.6,0,0,1-3.41.81q-.61.07-.61.35t.59.57a3,3,0,0,0,1.34.29,11,11,0,0,0,2.06-.27l-.14,5.38q-4,1.93-4.8,1.93-1,0-1,.42a2.24,2.24,0,0,0,.73,1.22q.73.79,1.17.79a1.5,1.5,0,0,0,.95-.44,61.4,61.4,0,0,1,7.27-5q.85-.51.85-.76t-.47-.25a3.9,3.9,0,0,0-1.49.51l-1.86.91Zm14-10.58q0,.14.34.47t1.18,1.12A13.47,13.47,0,0,0,310.93,77a1.59,1.59,0,0,0,.86.34q.71,0,.71-1a2.1,2.1,0,0,0-.85-1.71,3.7,3.7,0,0,0-2.37-.68q-1.22,0-1.22.37m3.79,13.42a10.29,10.29,0,0,1,1-2.13,1.53,1.53,0,0,0,.39-.86q0-.35-.91-1a3,3,0,0,0-1.3-.61q-.39,0-.39.37a4.08,4.08,0,0,0,.1.85,5.94,5.94,0,0,1-.32,2.08,18.54,18.54,0,0,1-1.13,3.13,42.14,42.14,0,0,1-2.77-7.2q4.09-1,4.48-1.18a.54.54,0,0,0,.39-.49q0-.32-.46-.54a3.39,3.39,0,0,0-1.4-.22,11.45,11.45,0,0,0-3.38.95,38.67,38.67,0,0,1-1.08-7l.14-1.22a.91.91,0,0,0-.39-.83,3.75,3.75,0,0,0-1.28-.42,8.16,8.16,0,0,0-1.44-.17q-.54,0-.54.32t.69,1q.69.69,2.62,8.77A23.78,23.78,0,0,1,300,82.67a4.66,4.66,0,0,0-1.52-.57q-.37,0-.37.34a3.05,3.05,0,0,0,.3,1,5.8,5.8,0,0,1,.3,2.16,17.78,17.78,0,0,1-.9,5.53,16.25,16.25,0,0,1-3.6,5.73q-.3.34-.3.47a.12.12,0,0,0,.14.14,4.37,4.37,0,0,0,1.76-1,9.64,9.64,0,0,0,2.54-3.16A14.43,14.43,0,0,0,300,88.51a3.2,3.2,0,0,0,.63.07,2.8,2.8,0,0,0,.78-.15,3,3,0,0,1,.86-.15q.71,0,.71.78a16.56,16.56,0,0,1-.15,2.47,3.22,3.22,0,0,1-.41,1.32.8.8,0,0,1-.68.34A2.17,2.17,0,0,1,301,93a1.73,1.73,0,0,0-.59-.14q-.24,0-.24.2t.44.61a5.15,5.15,0,0,1,1.25,2,.4.4,0,0,0,.44.34q.68,0,1.37-1.23a9.16,9.16,0,0,0,.9-3.62,8.48,8.48,0,0,1,.41-2.59,1.58,1.58,0,0,0,.44-.9q0-.35-.83-.74a3.33,3.33,0,0,0-1.22-.39,1.52,1.52,0,0,0-.9.41,3.93,3.93,0,0,1-2.33.85,23.2,23.2,0,0,0,.2-4.26,4.9,4.9,0,0,0,1,.07,24.88,24.88,0,0,0,4-.91,53,53,0,0,0,3.14,8.42,18.48,18.48,0,0,1-3.62,4q-.37.27-.37.44t.24.17a4.32,4.32,0,0,0,1.81-.86,12.69,12.69,0,0,0,2.65-2.48,22.32,22.32,0,0,0,4.68,6.15q2.25,1.86,3.18,1.86t.93-1a2.53,2.53,0,0,0-.07-.54,24.73,24.73,0,0,1-.37-4.33q0-1-.27-1t-.39.59a11.5,11.5,0,0,1-.61,1.47,7.3,7.3,0,0,1-.57,1.06.45.45,0,0,1-.36.19q-.57,0-2.11-1.62A24,24,0,0,1,310.07,91a27.85,27.85,0,0,0,1.79-3.28m-39-6.69q2.64-2.23,3.62-2.92a7.72,7.72,0,0,1,1.77-1q.79-.29.79-.69t-1.37-1.32a4.91,4.91,0,0,0-1.93-.78,3.77,3.77,0,0,0-1.44.39,16.61,16.61,0,0,1-3.08.83,28.9,28.9,0,0,1-3.41.52q-1.22.08-1.22.27t.85.63a3.22,3.22,0,0,0,1.4.44,3.06,3.06,0,0,0,1-.14,28.18,28.18,0,0,1,2.72-.95,10.8,10.8,0,0,1,2.28-.54q.51,0,.51.34a6.86,6.86,0,0,1-1,2,28.4,28.4,0,0,1-1.83,2.64,2.64,2.64,0,0,0-1.3-.34q-.69,0-.69.27t.88.81A4,4,0,0,1,272.71,84q-5.78.91-6.86,1t-1.08.29q0,.2.47.54a1.79,1.79,0,0,0,1.06.34,13.49,13.49,0,0,0,2.37-.41,33.81,33.81,0,0,1,4.28-.64,30.32,30.32,0,0,1,.3,4.29A19.09,19.09,0,0,1,273,93a7.12,7.12,0,0,1-.68,2.11,1.21,1.21,0,0,1-1.1.66,4.72,4.72,0,0,1-1.54-.29,4.63,4.63,0,0,0-1-.29q-.22,0-.22.14t.54.61a11.58,11.58,0,0,1,1.3,1.42,10.58,10.58,0,0,1,1,1.45q.27.51.54.51.68,0,1.94-1.89t1.27-7.3a24.88,24.88,0,0,0-.51-5.21q2.27-.14,3.92-.14l2.81.07q1.62,0,1.62-.51,0-.34-.79-1a2.92,2.92,0,0,0-1.86-.63,9.35,9.35,0,0,0-2,.2q-.93.2-4,.74A6.87,6.87,0,0,0,272.88,81M261,89.29q-1-.74-1.86-1.28a.57.57,0,0,1-.34-.47l.81-3.75,3.52-.88A18.38,18.38,0,0,1,261,89.29m3.79-5.71a5.23,5.23,0,0,1,.51-1.45,1.48,1.48,0,0,0,.27-.71q0-.57-.85-1.13a2.83,2.83,0,0,0-1.17-.56q-.32,0-.32.41l.07.85a10.43,10.43,0,0,1-.07,1.15l-3.35.57a72.9,72.9,0,0,1,1.83-7.13,1.74,1.74,0,0,0,.2-.78q0-.74-1.17-1.45a4.07,4.07,0,0,0-1.61-.71q-.44,0-.44.32a1.89,1.89,0,0,0,.34.88,4.71,4.71,0,0,1,.34,2.18,54.25,54.25,0,0,1-.91,7,42.83,42.83,0,0,1-5.34.68l-1-.07q-.85,0-.85.39t.81,1a2.38,2.38,0,0,0,1.35.66,3.19,3.19,0,0,0,1.35-.41,22.56,22.56,0,0,1,3.48-1.12l-.41,2.33a6.74,6.74,0,0,0-.1,1.1,1.45,1.45,0,0,0,.68,1,13.42,13.42,0,0,1,1.83,1.72,34.9,34.9,0,0,1-3,2.89,22.89,22.89,0,0,1-2.67,2.08q-1,.61-1,.85t.2.1A8.91,8.91,0,0,0,256.76,95a18,18,0,0,0,4.43-3.63,31.7,31.7,0,0,1,2.94,3.55q.44.61.81.61t.51-1.12a3.19,3.19,0,0,0-.93-2.15,17.82,17.82,0,0,0-2.38-2.15,18.48,18.48,0,0,0,2.67-6.53m-27.38,5.65a14.74,14.74,0,0,1,.52-1.93,4.71,4.71,0,0,1,.64-1.39,1.08,1.08,0,0,0,.29-.71q0-.37-1.2-1a4.59,4.59,0,0,0-1.72-.61,1.06,1.06,0,0,0-.85.37,2.63,2.63,0,0,1-.91.64q-.59.27-2.32.86a16.23,16.23,0,0,1-2.94.76,42,42,0,0,0,2.37-6.12q10.45-1.79,10.45-3.08,0-.34-.66-.56a5,5,0,0,0-1.57-.22,8.19,8.19,0,0,0-2.48.54q-1.57.54-5.19,1.45A36.61,36.61,0,0,1,233,74.45a3.33,3.33,0,0,0,.34-1.22q0-.44-1.34-1.06a5.39,5.39,0,0,0-1.93-.63q-.59,0-.59.51a1.34,1.34,0,0,0,.17.57,5,5,0,0,1,.57,2.43,16,16,0,0,1-.57,3.69q-3.11.74-5,1t-1.91.49q0,.22.73.51a3.78,3.78,0,0,0,1.49.27q.76,0,4.31-.52a31.6,31.6,0,0,1-4.8,9.65,29.28,29.28,0,0,1-7.2,7.12q-.54.37-.54.56t.24.19a9.18,9.18,0,0,0,3-1.44,21.23,21.23,0,0,0,4.63-3.89,28.17,28.17,0,0,0,4.07-5.9,3.18,3.18,0,0,0,1.42.37,5.45,5.45,0,0,0,1.62-.3,17.39,17.39,0,0,1,3.21-.81.61.61,0,0,1,.47.15,1.65,1.65,0,0,1,.14.88,12.27,12.27,0,0,1-.35,2.33,19.37,19.37,0,0,1-.83,2.82Q234,92,232.6,90.7A16.68,16.68,0,0,0,230.45,89a2.8,2.8,0,0,0-1.47-.46q-.73,0-.73.32t.56.57a11.54,11.54,0,0,1,2,1.45q1.44,1.2,2.86,2.62a10.77,10.77,0,0,1-3.47,3,19.55,19.55,0,0,1-5.05,2q-.95.24-.95.46t1.28.22A11.92,11.92,0,0,0,230.69,98a11.65,11.65,0,0,0,4.19-3.3A61.39,61.39,0,0,0,240,99.47a3.38,3.38,0,0,0,1.76.41,26,26,0,0,0,3.6-.41,27.78,27.78,0,0,0,2.94-.56q.42-.15.42-.39t-.68-.41a59.53,59.53,0,0,1-7.47-1.86,17.11,17.11,0,0,1-4.8-2.84,13.4,13.4,0,0,0,1.69-4.19m-46.15-4.09q-.27,0-.71.74-1.79,3-3,4.82a15.15,15.15,0,0,1-1.62,2.18,1.81,1.81,0,0,1-1.13.37q-.34,0-.34.42a4.72,4.72,0,0,0,.83,1.69q.83,1.3,1.22,1.3t.76-1.08q.34-1.08,1.72-4.36t1.91-4.43a5.24,5.24,0,0,0,.52-1.45q0-.2-.14-.2m-3.52-2.79a4.19,4.19,0,0,0-2.33-.76q-.44,0-.44.25a4.74,4.74,0,0,0,.83,1.44,15,15,0,0,0,1.28,1.66,1.4,1.4,0,0,0,1,.47.62.62,0,0,0,.59-.37,1.94,1.94,0,0,0,.19-.88,2.17,2.17,0,0,0-1.15-1.81m.68-7.4a6,6,0,0,0,.86,1.69,9.12,9.12,0,0,0,1.3,1.79,1.28,1.28,0,0,0,.81.39q.74,0,.74-1.56a2.08,2.08,0,0,0-1.32-2,5.16,5.16,0,0,0-2-.64q-.37,0-.37.29m16.13,13.37a6,6,0,0,1,1.28-1.89.74.74,0,0,0,.3-.52q0-.25-1-.86a3.63,3.63,0,0,0-1.44-.61,2.19,2.19,0,0,0-.91.24,16.8,16.8,0,0,1-1.79.64l.37-6.19a37.87,37.87,0,0,1,3.77-.61q.52,0,.52.37a3.6,3.6,0,0,1-.41,1.25,4.33,4.33,0,0,0-.41,1.06.16.16,0,0,0,.19.19,2.69,2.69,0,0,0,.91-.51,8.4,8.4,0,0,1,1.42-.81,13.84,13.84,0,0,1,1.77-.61q.54-.14.54-.41,0-.57-1.45-1.49a5,5,0,0,0-2-.91,2.2,2.2,0,0,0-1.22.47,12.94,12.94,0,0,1-3.58,1.18q.14-1.39.39-2.89a12.84,12.84,0,0,1,.39-1.84,3.11,3.11,0,0,0,.3-1.15q0-.44-1.27-1a5.67,5.67,0,0,0-1.77-.52q-.51,0-.51.37a2.76,2.76,0,0,0,.52,1.2q.52.83.52,4.07,0,.88,0,2a39,39,0,0,1-3.92.61,3.69,3.69,0,0,0-1.67-.78q-.52,0-.52.32a1.52,1.52,0,0,0,.14.63,5.93,5.93,0,0,1,.41,2.43A27.61,27.61,0,0,1,193,90.61a19,19,0,0,1-3.41,6.49q-.41.47-.41.61t.1.14q.51,0,2.62-2.25A13.86,13.86,0,0,0,195,89.29a51.86,51.86,0,0,0,1.3-9.33,25.9,25.9,0,0,0,3.62-.51l-.27,6.22a12,12,0,0,1-2.35.41q-.66,0-.66.2t.57.41a3.58,3.58,0,0,0,1.2.2,3.12,3.12,0,0,0,1.08-.17q.46-.17,1.47-.44a6.57,6.57,0,0,1,1.56-.27q.54,0,.54.39a8.46,8.46,0,0,1-.51,1.88,17.22,17.22,0,0,1-1.28,2.87L199.15,89a3.85,3.85,0,0,0-1.37-.9,3.62,3.62,0,0,0-1.13-.29q-.64,0-.64.27t1.08.74A6,6,0,0,1,198.52,90a26.46,26.46,0,0,1,2,2.25,12.2,12.2,0,0,1-2.94,2.42,15.34,15.34,0,0,1-3.13,1.59q-1.2.39-1.2.57t.57.19a10,10,0,0,0,3.8-1,11.18,11.18,0,0,0,3.8-2.62,57.53,57.53,0,0,0,3.65,4.56,4.47,4.47,0,0,0,2.94.68q.74,0,2.69-.1a11.25,11.25,0,0,0,2.27-.24q.32-.14.32-.3,0-.37-1.22-.71a29,29,0,0,1-5.41-1.88,19.46,19.46,0,0,1-4.33-3.19,18.56,18.56,0,0,0,2.16-3.89m-42.7.85q.2,2.64.2,4.36a18.6,18.6,0,0,1-.12,2.5,2.76,2.76,0,0,1-.25,1q-.14.19-.59.19a5.88,5.88,0,0,1-1.52-.34,7.24,7.24,0,0,0-1.27-.34q-.2,0-.2.17t.78,1a17.75,17.75,0,0,1,2.1,3q.24.37.51.37.51,0,1.54-1.42a5.23,5.23,0,0,0,1-3.14l-.17-3.55q-.1-2.06-.1-3.47a9.31,9.31,0,0,1,.14-1.94,3.8,3.8,0,0,0,.14-.88.87.87,0,0,0-.34-.64,6.31,6.31,0,0,0-1-.71q2.06-.2,4.29-.2l3.62.07q1.62,0,1.62-.57t-.9-1a4,4,0,0,0-2.1-.54,23.79,23.79,0,0,0-3.7.44q-2.77.51-6.37,1a51.41,51.41,0,0,1-5.29.52q-.78,0-.78.32t.74.76a2.53,2.53,0,0,0,1.3.47,3.74,3.74,0,0,0,1-.14,43.74,43.74,0,0,1,5-.95,11,11,0,0,1,.74,3.72m-8.62-13.29q-.34,0-.64.79a11.4,11.4,0,0,1-.9,1.77,12.64,12.64,0,0,1-1.18,1.67,2.11,2.11,0,0,0-.59,1.35,3,3,0,0,0,.3,1.3q.3.64.68.64.57,0,1.56-1.62a10.72,10.72,0,0,0,1.32-3.08,12,12,0,0,0,1.67.1q1,0,3.94-.37t6.27-.59q3.3-.22,4.26-.22a4.1,4.1,0,0,1,1.2.1.4.4,0,0,1,.24.41,4,4,0,0,1-.61,1.35,5.22,5.22,0,0,0-.61,1.22q0,.1.15.1a2.79,2.79,0,0,0,.79-.34,7.62,7.62,0,0,1,3.55-1H175a1.37,1.37,0,0,0,.81-.15A.44.44,0,0,0,176,79q0-.68-1.69-2a5.06,5.06,0,0,0-2.77-1.3,1.82,1.82,0,0,0-.57.1,75.57,75.57,0,0,1-8.22,1.08q-6.93.71-8.86.78-.1-1.83-.61-1.83m10.36-4.06a4.84,4.84,0,0,0-2.76-.88q-.47,0-.47.27a7.51,7.51,0,0,0,1.34,2.37q1.34,1.93,2,1.93,1.15,0,1.15-1.49a2.59,2.59,0,0,0-1.3-2.2M135.35,87.91h8V86.45h-8Zm-14.54-2.2q2.94-.37,4.77-.52t1.83-.63q0-.24-.61-.59a3,3,0,0,0-1.54-.35,7.17,7.17,0,0,0-1.91.27q-1,.27-2.5.57a9.34,9.34,0,0,1,.19-1.18,2.21,2.21,0,0,0,.08-.59.56.56,0,0,0-.25-.47,2.57,2.57,0,0,0-.83-.34,3.82,3.82,0,0,0-.93-.15q-.35,0-.35.3a1.23,1.23,0,0,0,.35.73,3.67,3.67,0,0,1,.42,1.94q-4.06.74-5.17.81t-1.12.34q0,.17.54.42a3.09,3.09,0,0,0,1.32.25,7.94,7.94,0,0,0,1.49-.14q.71-.14,2.81-.47a24.5,24.5,0,0,1-9.09,8.69q-.85.47-.85.68t.24.1a7.77,7.77,0,0,0,2.79-.81,14.57,14.57,0,0,0,3.72-2.47,21.21,21.21,0,0,0,3.47-4q0,.51,0,2t-.17,3.6a20.71,20.71,0,0,1-.34,2.77,4.77,4.77,0,0,0-.17,1.17,5.27,5.27,0,0,0,.32,1.49q.32,1,.68,1t.64-.83a8.06,8.06,0,0,0,.29-2.48q0-3.45-.14-9,2.57,3,4.4,4.9a12.85,12.85,0,0,0,2.27,2.11,3.81,3.81,0,0,0,1.39.19,24.77,24.77,0,0,0,2.76-.22,15.34,15.34,0,0,0,2.06-.32q.25-.1.25-.24t-.81-.47a30,30,0,0,1-4-1.18,16.81,16.81,0,0,1-3.35-1.84q-1.79-1.23-4.94-3.84ZM119,78.14a4.12,4.12,0,0,0-1.15-.2q-.47,0-.47.64,0,1.52-2.3,3.82a.74.74,0,0,0-.27.44q0,.17.24.17a3.65,3.65,0,0,0,1.2-.66,7.48,7.48,0,0,0,1.72-1.66,6.78,6.78,0,0,1,1.23-1.34q.47-.34.47-.64t-.68-.57m2.57-.1q0,.41,1.61,1.86t2.16,1.45a.49.49,0,0,0,.56-.56,2.39,2.39,0,0,0-.49-1.28,3.44,3.44,0,0,0-1.74-1.18,6.14,6.14,0,0,0-1.79-.46q-.3,0-.3.17M109,84.22q3-.88,3-1.45,0-.2-.3-.35a1.83,1.83,0,0,0-.81-.15,6.69,6.69,0,0,0-1.79.44,17.94,17.94,0,0,1,.34-3,2.43,2.43,0,0,0,.17-.78q0-.78-1.45-1.25a15.92,15.92,0,0,0,3.21-.85q1.25-.51,1.25-1t-1-.51a12.64,12.64,0,0,0-2.94.54,27.61,27.61,0,0,1-3.52.74q-.74.1-.74.35t.9.61a4.34,4.34,0,0,0,1.91.29q.68,1,.54,5.34-1.72.51-2.64.68t-.91.39q0,.22.41.39a2.92,2.92,0,0,0,1.1.17,11.78,11.78,0,0,0,2-.24l-.2,5.65A16,16,0,0,1,103,91.69a3,3,0,0,0-1.2.14.46.46,0,0,0-.22.42q0,.29.78,1t1.18.76a1.43,1.43,0,0,0,.91-.47,43,43,0,0,1,6.25-3.75q1.66-.88,1.66-1.13t-.57-.25a11.2,11.2,0,0,0-3,1.12Zm5.65-9.4q-.2,0-.37.68a11.9,11.9,0,0,1-.73,2.16A4.31,4.31,0,0,0,113.1,79a3.72,3.72,0,0,0,.19,1q.19.63.51.63t.86-1.3a15.45,15.45,0,0,0,.88-3.36,6.41,6.41,0,0,0,1.23.1,23.52,23.52,0,0,0,2.79-.3,54.17,54.17,0,0,1,5.44-.68q1,0,1,.54a2.19,2.19,0,0,1-.25.85q-.25.54-.39.76a.75.75,0,0,0-.14.37q0,.15.19.15a1.85,1.85,0,0,0,.66-.24,9.54,9.54,0,0,1,3.48-1q.51,0,.51-.3t-.59-.9a7.37,7.37,0,0,0-1.79-1.28,4.54,4.54,0,0,0-1.61-.66,3.12,3.12,0,0,0-1.08.27,24.79,24.79,0,0,1-5.24,1.22,24.38,24.38,0,0,1-4.53.37q-.37-.47-.57-.47M75.73,85.54a5.37,5.37,0,0,0-2-1.4,5.69,5.69,0,0,0-1.56-.52q-.34,0-.34.3a5,5,0,0,0,.57,1.27q.57,1.06,1.25,2.15a6.57,6.57,0,0,0,1.1,1.44,1.3,1.3,0,0,0,.83.35q.41,0,.64-.57a2.92,2.92,0,0,0,.24-1.12,2.84,2.84,0,0,0-.76-1.89M92.3,81.38a4,4,0,0,0-1.81-.74q-.61,0-.61.57v.51a3,3,0,0,1-.27,1.15,13.93,13.93,0,0,1-1.2,2.25q-.9,1.44-2.52,3.57a.9.9,0,0,0-.24.49q0,.19.2.19a6.77,6.77,0,0,0,1.59-1.06,35.43,35.43,0,0,0,3.65-3.43A10.4,10.4,0,0,1,93,83.26q.54-.29.54-.63,0-.51-1.2-1.25m-8.57.32q0,3.63-.37,12.09L80.18,94q-.07-13.35.27-14.33a2.06,2.06,0,0,0,.1-.57q0-.81-1.32-1.56,1.32-.2,4.23-.57a24.94,24.94,0,0,1,.27,4.72M86.16,79a2.19,2.19,0,0,0,.1-.63,1,1,0,0,0-.42-.64,10.31,10.31,0,0,0-1.27-.86L90,76.28q2.1-.2,2.1-.68,0-.3-.78-.78a3.44,3.44,0,0,0-1.83-.47,19.34,19.34,0,0,0-3.5.52q-2.45.52-5.85,1t-6,.61q-.78,0-.78.3t.73.66a3.76,3.76,0,0,0,1.79.39,19.89,19.89,0,0,0,2-.1q.47,2,.47,16.5l-4.56.37q-1.69.17-2.89.17l-1.86,0q-.66,0-.66.32t.9,1a2.89,2.89,0,0,0,1.59.63,9.8,9.8,0,0,0,1.81-.22q1.12-.22,4.4-.68a49.49,49.49,0,0,1,5.63-.51q2.35-.05,3.94-.05t3.48.14a40.65,40.65,0,0,1,4.8.71,3.13,3.13,0,0,0,.61.07q1.08,0,1.08-.66T95.32,94a5.08,5.08,0,0,0-2.79-.85,27.65,27.65,0,0,0-3.11.19q-1.64.19-4.31.39Q85.86,80,86.16,79"/></svg>