<svg xmlns="http://www.w3.org/2000/svg" viewBox="0 0 50 50"><defs><style>.cls-1{fill:#fff;}</style></defs><title>icon-top</title><g id="Ebene_2" data-name="Ebene 2"><g id="Ebene_1-2" data-name="Ebene 1"><path class="cls-1" d="M25,50A25,25,0,1,0,0,25,25,25,0,0,0,25,50ZM25,4.84A20.16,20.16,0,1,1,4.84,25,20.15,20.15,0,0,1,25,4.84ZM27,37.9H23a1.21,1.21,0,0,1-1.21-1.21V25H15a1.22,1.22,0,0,1-.86-2.07l10-10a1.23,1.23,0,0,1,1.72,0l10,10A1.21,1.21,0,0,1,35,25H28.23V36.69A1.21,1.21,0,0,1,27,37.9Z"/></g></g></svg>