<?xml version="1.0" standalone="no"?>
<!DOCTYPE svg PUBLIC "-//W3C//DTD SVG 20010904//EN"
 "http://www.w3.org/TR/2001/REC-SVG-20010904/DTD/svg10.dtd">
<svg version="1.0" xmlns="http://www.w3.org/2000/svg"
 width="700.000000pt" height="700.000000pt" viewBox="0 0 700.000000 700.000000"
 preserveAspectRatio="xMidYMid meet">
<metadata>
Created by potrace 1.11, written by Peter Selinger 2001-2013
</metadata>
<g transform="translate(0.000000,700.000000) scale(0.100000,-0.100000)"
fill="#000000" stroke="none">
<path d="M3328 6995 c-2 -1 -43 -5 -93 -8 -573 -39 -1184 -249 -1665 -570 -72
-49 -263 -190 -286 -212 -6 -5 -35 -30 -65 -55 -84 -70 -278 -262 -349 -346
-36 -42 -73 -86 -84 -98 -175 -200 -395 -571 -530 -893 -59 -141 -159 -466
-180 -583 -4 -26 -23 -131 -30 -165 -11 -60 -21 -136 -32 -260 -11 -108 -11
-514 -1 -605 4 -36 9 -92 12 -125 8 -91 42 -275 76 -415 117 -478 354 -953
676 -1355 80 -101 322 -352 418 -436 357 -310 774 -546 1220 -692 105 -35 242
-73 295 -83 14 -3 33 -7 42 -10 10 -3 30 -7 45 -10 16 -2 51 -9 78 -14 83 -16
108 -20 160 -26 28 -3 55 -7 62 -9 74 -24 636 -24 793 -1 14 2 50 7 80 11 30
4 64 9 75 11 206 34 358 71 555 136 1067 348 1901 1195 2239 2273 57 182 108
408 126 560 4 28 8 61 11 75 19 110 26 544 10 725 -4 55 -9 102 -11 105 -2 3
-6 30 -9 60 -3 30 -8 64 -10 75 -2 11 -11 61 -20 110 -87 469 -301 965 -596
1376 -144 199 -377 455 -542 594 -39 33 -76 65 -82 71 -6 6 -65 51 -131 100
-441 329 -955 549 -1486 638 -237 40 -325 48 -571 50 -109 2 -199 2 -200 1z
m382 -340 c156 -10 311 -31 440 -60 14 -3 36 -7 50 -10 139 -26 414 -118 587
-197 365 -165 662 -369 935 -640 177 -176 286 -309 434 -528 232 -344 429
-871 479 -1285 4 -27 8 -61 11 -75 22 -131 22 -602 0 -716 -2 -11 -7 -47 -10
-80 -4 -32 -9 -68 -11 -79 -3 -11 -7 -31 -9 -45 -37 -206 -129 -521 -195 -665
-5 -11 -33 -71 -62 -134 l-54 -114 -95 -45 c-136 -63 -314 -133 -465 -180
-116 -37 -369 -102 -450 -116 -16 -3 -73 -12 -125 -21 -52 -9 -106 -18 -120
-20 -14 -3 -54 -7 -90 -11 -36 -3 -76 -7 -90 -10 -99 -16 -493 -22 -658 -10
-116 9 -192 16 -227 21 -16 2 -52 7 -80 10 -27 4 -61 9 -75 11 -14 2 -41 7
-60 10 -225 34 -580 136 -821 235 -118 48 -348 160 -509 246 -395 213 -695
334 -915 369 -16 2 -46 7 -65 10 -78 13 -357 12 -445 -2 -131 -21 -270 -58
-382 -103 l-98 -39 -44 132 c-24 72 -45 142 -48 155 -2 14 -6 28 -8 31 -18 29
-79 390 -91 535 -13 165 -8 501 11 630 2 17 9 66 15 110 10 67 23 139 45 235
104 472 354 966 683 1350 58 68 248 259 317 320 154 135 386 297 572 398 292
159 677 294 958 336 22 4 67 11 100 16 85 14 124 18 260 26 66 3 121 7 122 8
4 3 190 -3 283 -9z m-2245 -4470 c44 -9 89 -18 101 -20 114 -24 334 -118 614
-263 514 -265 672 -335 960 -426 226 -70 480 -129 655 -152 17 -2 46 -6 65 -9
202 -29 342 -38 605 -39 286 0 478 14 720 54 33 5 76 12 95 15 19 3 46 8 60
11 14 3 36 8 50 10 101 17 451 112 555 150 24 9 23 7 -77 -106 -343 -390 -729
-659 -1235 -861 -13 -5 -33 -13 -45 -19 -79 -33 -410 -125 -492 -136 -15 -2
-35 -6 -45 -8 -9 -3 -38 -8 -66 -12 -27 -3 -58 -8 -67 -9 -9 -2 -48 -7 -85
-10 -37 -4 -88 -9 -113 -11 -63 -7 -372 -6 -450 1 -146 12 -228 23 -375 50
-103 18 -317 76 -431 116 -651 228 -1218 665 -1592 1227 -79 118 -100 153
-166 274 l-36 66 72 30 c105 43 235 76 348 89 25 3 46 6 47 7 10 9 263 -5 328
-19z"/>
<path d="M2079 5985 c-4 -3 -3 -25 1 -48 4 -23 10 -67 14 -97 3 -30 8 -82 12
-115 3 -33 9 -63 13 -66 3 -4 44 -9 91 -13 47 -3 118 -10 158 -16 40 -5 94
-13 120 -16 57 -6 238 -48 307 -71 85 -27 215 -92 282 -139 116 -83 189 -200
221 -355 l17 -84 44 4 c24 1 53 4 63 6 10 2 55 7 101 11 113 9 112 9 115 26 6
29 -36 204 -67 281 -103 259 -327 450 -651 557 -81 27 -230 68 -278 76 -85 15
-142 24 -177 28 -22 3 -58 8 -80 10 -43 6 -118 13 -230 22 -39 3 -73 3 -76 -1z"/>
<path d="M4977 5874 c-1 -1 -36 -5 -77 -8 -174 -16 -401 -75 -550 -143 -239
-109 -425 -308 -519 -552 -31 -82 -63 -209 -76 -301 -3 -25 -8 -56 -10 -70
-11 -77 -15 -149 -8 -153 4 -3 40 -8 78 -11 39 -4 88 -9 110 -11 124 -15 135
-15 136 3 0 9 2 24 3 32 2 8 7 44 11 80 4 36 8 72 10 80 2 8 6 33 10 55 8 55
53 191 80 246 25 49 94 139 134 177 83 75 214 143 363 186 93 27 250 54 325
55 36 1 39 9 48 127 3 39 7 80 9 91 3 11 6 42 7 69 l3 49 -42 0 c-24 1 -44 0
-45 -1z"/>
<path d="M1711 4712 l-113 -3 6 -57 c19 -178 30 -258 36 -265 4 -5 117 -9 251
-9 221 -1 339 -7 424 -22 17 -2 50 -8 75 -11 246 -34 469 -139 598 -280 47
-51 116 -171 127 -220 2 -11 9 -38 14 -60 6 -22 10 -41 11 -42 0 -2 0 -12 0
-22 0 -17 6 -19 38 -16 20 2 69 7 107 11 39 3 81 8 95 9 14 2 40 4 59 4 l33 1
-6 53 c-13 124 -70 284 -139 392 -139 218 -403 382 -749 464 -47 11 -108 23
-135 27 -26 3 -51 8 -54 10 -3 2 -34 6 -70 9 -35 4 -75 9 -89 11 -21 3 -156
10 -355 17 -27 1 -101 1 -164 -1z"/>
<path d="M5147 4704 c-1 -1 -38 -5 -82 -8 -72 -6 -106 -11 -170 -22 -11 -2
-45 -8 -75 -14 -268 -49 -534 -175 -728 -345 -215 -189 -382 -479 -441 -765
-19 -94 -21 -104 -27 -152 l-6 -48 33 -1 c19 -1 43 -3 54 -4 11 -1 56 -6 100
-9 44 -4 95 -9 113 -11 17 -3 32 -2 33 3 0 4 2 16 5 27 2 11 6 40 10 65 11 78
53 212 95 299 156 329 431 531 839 615 134 28 241 38 429 40 l114 1 3 40 c2
22 6 58 8 80 5 36 18 173 18 185 1 26 -10 27 -163 27 -88 -1 -161 -2 -162 -3z"/>
<path d="M5310 3547 c-3 -3 -41 -8 -85 -11 -44 -4 -91 -9 -105 -11 -246 -36
-432 -91 -639 -191 -294 -143 -520 -336 -701 -600 -133 -195 -228 -420 -259
-616 -9 -55 -12 -53 94 -63 102 -8 177 -16 202 -20 23 -4 28 4 38 65 3 19 19
73 36 120 16 47 31 90 32 95 5 15 50 104 77 150 166 291 470 532 817 650 113
38 306 80 423 92 98 10 389 10 512 1 54 -5 97 -5 96 0 -2 7 10 132 17 174 2
13 6 51 9 86 6 59 5 62 -17 63 -12 0 -31 3 -42 6 -25 6 -499 15 -505 10z"/>
<path d="M1489 3456 c-2 -2 -51 -7 -109 -10 -109 -6 -172 -12 -228 -22 -36 -6
-35 4 -17 -134 5 -41 17 -146 20 -175 2 -22 15 -23 135 -11 157 15 247 20 425
20 165 0 343 -8 402 -18 10 -2 40 -7 66 -10 27 -4 56 -9 65 -11 190 -39 347
-100 461 -177 69 -48 147 -133 187 -205 37 -64 74 -184 74 -237 l0 -28 88 7
c48 3 101 8 117 10 17 2 52 7 80 10 27 3 50 7 51 8 1 1 -4 38 -12 82 -42 240
-150 428 -329 575 -196 159 -481 268 -800 305 -33 4 -76 9 -95 12 -44 6 -576
14 -581 9z"/>
</g>
</svg>
