<svg xmlns="http://www.w3.org/2000/svg" viewBox="0 0 11.21 11.18"><defs><style>.cls-1{fill:#fff;}</style></defs><title>icon-lang-zn</title><g id="Ebene_2" data-name="Ebene 2"><g id="Ebene_2-2" data-name="Ebene 2"><path class="cls-1" d="M11.07,2.89H8.91c.31.11.4.13.48.17s-.13.12-.3.12A12.32,12.32,0,0,1,6.19,8a11.71,11.71,0,0,0,5,2.41,4.22,4.22,0,0,0-.57.81A12.22,12.22,0,0,1,5.53,8.56,14.24,14.24,0,0,1,.47,11.17,4,4,0,0,0,0,10.43,13.28,13.28,0,0,0,4.92,8a13.6,13.6,0,0,1-3-4.94l.49-.16H.11V2.1h5V0L6.2.07c0,.09-.08.15-.24.17V2.1h5.11Zm-8.31,0A11.75,11.75,0,0,0,5.58,7.4,11.64,11.64,0,0,0,8.3,2.89Z"/></g></g></svg>