<svg xmlns="http://www.w3.org/2000/svg" viewBox="0 0 13.52 8.32"><defs><style>.cls-1{fill:#fff;}</style></defs><title>icon-lang-en</title><g id="Ebene_2" data-name="Ebene 2"><g id="Ebene_2-2" data-name="Ebene 2"><path class="cls-1" d="M0,8.32V0H5.08V1H1.16V3.47H4.64v1H1.16V7.32H5.38v1Z"/><path class="cls-1" d="M12.55,8.32c-.17-.3-.38-.63-.6-1s-.48-.75-.74-1.15L10.39,5,9.54,3.79c-.28-.38-.55-.74-.82-1.08S8.21,2.08,8,1.82v6.5H6.85V0h.93c.37.4.77.87,1.2,1.4S9.83,2.48,10.25,3s.82,1.12,1.19,1.66.69,1,.94,1.46V0h1.14V8.32Z"/></g></g></svg>