<svg id="Layer_2" data-name="Layer 2" xmlns="http://www.w3.org/2000/svg" viewBox="0 0 24.5 112.25"><defs><style>.cls-1{fill:#fffdfd;}.cls-2{fill:#fff;}</style></defs><title>nivo-icons</title><path class="cls-1" d="M.25,100.15a12,12,0,1,1,12,12A12,12,0,0,1,.25,100.15Zm12.8,7.8a1,1,0,0,0,1.41,0L16,106.35a1,1,0,0,0,0-1.41l-4.8-4.8,4.8-4.8a1,1,0,0,0,0-1.41l-1.59-1.59a1,1,0,0,0-1.41,0L6,99.44a1,1,0,0,0,0,1.41Z"/><path class="cls-1" d="M12.25,68.1a12,12,0,1,1,12-12A12,12,0,0,1,12.25,68.1Zm6.3-11.3a1,1,0,0,0,0-1.41L11.45,48.3a1,1,0,0,0-1.41,0L8.45,49.9a1,1,0,0,0,0,1.41l4.8,4.8-4.8,4.8a1,1,0,0,0,0,1.41L10,63.9a1,1,0,0,0,1.41,0Z"/><path class="cls-2" d="M12.25,24.1a12,12,0,1,1,12-12A12,12,0,0,1,12.25,24.1Zm5.66-9.17L15.08,12.1l2.83-2.83a1,1,0,0,0,.3-.7,1,1,0,0,0-.3-.72L16.5,6.45a1,1,0,0,0-.72-.3,1,1,0,0,0-.7.3L12.25,9.28,9.42,6.45a1,1,0,0,0-.7-.3,1,1,0,0,0-.72.3L6.59,7.86a1,1,0,0,0-.3.72,1,1,0,0,0,.3.7L9.42,12.1,6.59,14.93a1,1,0,0,0-.3.7,1,1,0,0,0,.3.72L8,17.76a1,1,0,0,0,.72.3,1,1,0,0,0,.7-.3l2.83-2.83,2.83,2.83a1,1,0,0,0,.7.3,1,1,0,0,0,.72-.3l1.41-1.41a1,1,0,0,0,.3-.72A1,1,0,0,0,17.91,14.93Z"/></svg>